<mxfile host="app.diagrams.net" modified="2024-06-18T11:31:44.513Z" agent="Mozilla/5.0 (Windows NT 10.0; Win64; x64) AppleWebKit/537.36 (KHTML, like Gecko) Chrome/126.0.0.0 Safari/537.36" version="24.4.6" etag="F8xXRtmE7KrtC9mioltc" type="github">
  <diagram name="Page-1" id="Wlt7XFDpTBjAWqptCqu5">
    <mxGraphModel>
      <root>
        <mxCell id="0" />
        <mxCell id="1" parent="0" />
      </root>
    </mxGraphModel>
  </diagram>
</mxfile>
